<?xml version="1.0" encoding="UTF-8"?>
<svg id="Capa_1" xmlns="http://www.w3.org/2000/svg" xmlns:xlink="http://www.w3.org/1999/xlink" version="1.1" viewBox="0 0 800 800">
  <!-- Generator: Adobe Illustrator 29.2.1, SVG Export Plug-In . SVG Version: 2.1.0 Build 116)  -->
  <defs>
    <style>
      .st0 {
        fill: #fff;
      }
    </style>
  </defs>
  <path d="M602.9,2.6H199.3C90.9,2.6,2.4,91.1,2.4,199.5v403.7c0,108.4,88.5,196.9,196.9,196.9h403.7c108.4,0,196.9-88.5,196.9-196.9V199.5c0-108.4-88.5-196.9-196.9-196.9Z"/>
  <path class="st0" d="M426.3,367c.2-.3.5-.6.6-1v1h-.6ZM277.3,325h-96.4v289.9h96.4v-289.9h0ZM283.6,235.3c-.6-28.5-20.9-50.1-53.9-50.1s-54.5,21.7-54.5,50.1,20.9,50.1,53.2,50.1h.6c33.6,0,54.5-22.3,54.5-50.1ZM624.8,448.6c0-89-47.6-130.5-111-130.5s-74,28.1-86.9,47.8v-41h-96.3c1.2,27.2,0,289.9,0,289.9h96.3v-161.9c0-8.8.6-17.3,3.2-23.5,7-17.2,22.9-35.3,49.4-35.3s48.8,26.5,48.8,65.6v155.1h96.4v-166.2h0Z"/>
</svg>