<?xml version="1.0" encoding="UTF-8"?>
<svg xmlns="http://www.w3.org/2000/svg" version="1.1" viewBox="0 0 68.8 69.4">
  <!-- Generator: Adobe Illustrator 28.7.2, SVG Export Plug-In . SVG Version: 1.2.0 Build 154)  -->
  <g>
    <g id="Layer_1">
      <g>
        <path d="M50.6,2.6H18.2c-8.7,0-15.8,7.1-15.8,15.8v32.4c0,8.7,7.1,15.8,15.8,15.8h32.4c8.7,0,15.8-7.1,15.8-15.8V18.4c0-8.7-7.1-15.8-15.8-15.8ZM50.3,22.8c-2.2,0-4.1-1.8-4.1-4.1,0-2.2,1.8-4.1,4.1-4.1,2.2,0,4.1,1.8,4.1,4.1,0,2.2-1.8,4.1-4.1,4.1h0ZM34.4,19.3c8.4,0,15.2,6.8,15.2,15.2s-6.8,15.2-15.2,15.2-15.2-6.8-15.2-15.2c0-8.4,6.8-15.2,15.2-15.2Z"/>
        <path d="M34.4,43.8c5.1,0,9.2-4.1,9.2-9.2s-4.1-9.2-9.2-9.2-9.2,4.1-9.2,9.2h0c0,5.1,4.1,9.2,9.2,9.2Z"/>
      </g>
    </g>
  </g>
</svg>